<?xml version="1.0" encoding="utf-8"?>
<!-- Generator: Adobe Illustrator 19.2.1, SVG Export Plug-In . SVG Version: 6.00 Build 0)  -->
<svg version="1.1" id="Layer_1" xmlns="http://www.w3.org/2000/svg" xmlns:xlink="http://www.w3.org/1999/xlink" x="0px" y="0px"
	 viewBox="0 0 178.7 35" style="enable-background:new 0 0 178.7 35;" xml:space="preserve">
<style type="text/css">
	.st0{fill:#FFFFFF;}
</style>
<g>
	<path class="st0" d="M10.2,7.4c-5.6,0-10,4.8-10,11c0,6.2,4.4,10.9,10.3,10.9c3.3,0,5.8-1,8.1-3.4c0.4-0.4,0.5-0.9,0.5-1.2
		c0-0.9-0.8-1.7-1.7-1.7c-0.4,0-0.8,0.2-1.2,0.5c-1.7,1.7-3.5,2.4-5.7,2.4c-2.9,0-6-1.9-6.7-6h14.3c0.9,0,1.7-0.8,1.7-1.7
		C19.9,11.9,15.9,7.4,10.2,7.4z M16.2,16.6H3.9c0.6-3.5,3.1-5.9,6.2-5.9C14,10.7,15.8,13.6,16.2,16.6z"/>
	<path class="st0" d="M40.4,7.7c-0.4,0-1.2,0.2-1.7,1.2l-6.1,15.1l-7-15c-0.2-0.3-0.6-1.2-1.7-1.2c-1,0-1.8,0.8-1.8,1.7
		c0,0.3,0.1,0.6,0.2,0.9l8.5,17.6c-1.2,2.7-2.3,3.7-3.9,3.7c-1.2,0-1.7-0.2-2.2-0.3l-0.1,0c-0.2-0.1-0.5-0.2-0.8-0.2
		c-0.9,0-1.7,0.7-1.7,1.7c0,0.7,0.4,1.3,1.1,1.5c1.2,0.5,2.3,0.7,3.6,0.7c3.3,0,5.4-1.8,7.2-6l7.9-18.8c0.1-0.2,0.2-0.5,0.2-0.8
		C42.1,8.4,41.4,7.7,40.4,7.7z"/>
	<path class="st0" d="M54.2,7.4c-5.6,0-10,4.8-10,11c0,6.2,4.4,10.9,10.3,10.9c3.3,0,5.8-1,8.1-3.4c0.4-0.4,0.5-0.9,0.5-1.2
		c0-0.9-0.8-1.7-1.7-1.7c-0.4,0-0.8,0.2-1.2,0.5c-1.7,1.7-3.5,2.4-5.7,2.4c-2.9,0-6-1.9-6.7-6h14.3c0.9,0,1.7-0.8,1.7-1.7
		C63.9,11.9,59.8,7.4,54.2,7.4z M60.2,16.6H47.9c0.6-3.5,3.1-5.9,6.2-5.9C57.9,10.7,59.7,13.6,60.2,16.6z"/>
	<path class="st0" d="M127,7.4c-2.5,0-4.6,0.8-6.2,2.5V9.4c0-1-0.8-1.7-1.7-1.7c-1,0-1.7,0.8-1.7,1.7v17.8c0,1,0.8,1.7,1.7,1.7
		c1,0,1.7-0.8,1.7-1.7V16.8c0-3.5,2.5-6.1,5.9-6.1c3.4,0,5.4,2.2,5.4,5.8v10.7c0,1,0.8,1.7,1.7,1.7c1,0,1.7-0.8,1.7-1.7V16.1
		C135.6,10.9,132.1,7.4,127,7.4z"/>
	<path class="st0" d="M143.4,0c-1.1,0-1.9,0.9-1.9,1.9v0.6c0,1.1,0.9,1.9,1.9,1.9c1.1,0,2-0.9,2-1.9V2C145.4,0.9,144.5,0,143.4,0z"
		/>
	<path class="st0" d="M143.4,7.7c-1,0-1.7,0.8-1.7,1.7v17.8c0,1,0.8,1.7,1.7,1.7c1,0,1.7-0.8,1.7-1.7V9.4
		C145.2,8.4,144.4,7.7,143.4,7.7z"/>
	<path class="st0" d="M102.5,7.4c-5.2-0.1-9.9,3.7-10.6,9.1c-0.2,1.5-0.1,2.6,0,3.5c0.9,5.5,4.8,9.4,10.5,9.4c6,0,10.8-4.8,10.8-11
		C113.2,12.1,108.5,7.4,102.5,7.4z M109.6,18.4c0,4.3-3.1,7.5-7.1,7.5c-4,0-7.2-3.3-7.2-7.7c0-4.3,3.1-7.5,7.1-7.5
		C106.4,10.7,109.6,14,109.6,18.4z"/>
	<path class="st0" d="M86.2,20.8c-0.6,0.2-0.9,0.7-1,0.8c-1.2,2.1-2.7,3.4-4.6,4c-3.9,1.1-7.8-1.2-9-5.4c-1.2-4.1,0.9-8.1,4.7-9.2
		c2.4-0.7,4.3,0.1,5.9,0.9c0.4,0.2,0.8,0.2,1.3,0.1c0.9-0.3,1.5-1.2,1.2-2.2c-0.1-0.4-0.4-0.9-0.8-1.1c-2-1-4.8-2.1-8.4-1
		c-5.7,1.6-8.9,7.6-7.3,13.5c1.6,5.8,7.6,9.1,13.2,7.5c3-0.9,5.1-2.6,6.8-5.6c0.2-0.4,0.3-0.8,0.1-1.2C88,21.1,87,20.5,86.2,20.8z"
		/>
	<path class="st0" d="M168.7,20.8c-0.6,0.2-0.9,0.7-1,0.8c-1.2,2.1-2.7,3.4-4.6,4c-3.9,1.1-7.8-1.2-9-5.4c-1.2-4.1,0.9-8.1,4.7-9.2
		c2.4-0.7,4.3,0.1,5.9,0.9c0.4,0.2,0.8,0.2,1.3,0.1c0.9-0.3,1.5-1.2,1.2-2.2c-0.1-0.4-0.4-0.9-0.8-1.1c-2-1-4.8-2.1-8.4-1
		c-5.7,1.6-8.9,7.6-7.3,13.5c1.6,5.8,7.6,9.1,13.2,7.5c3-0.9,5.1-2.6,6.8-5.6c0.2-0.4,0.3-0.8,0.1-1.2
		C170.6,21.1,169.6,20.5,168.7,20.8z"/>
	<path class="st0" d="M83.9,18.5c-0.5,0-1-0.2-1.3-0.6C82,17.1,82,16,82.8,15.4c3.2-2.8,8.4-2.9,11.8-0.1c0.8,0.6,0.9,1.7,0.3,2.5
		c-0.6,0.8-1.7,0.9-2.5,0.3c-2-1.7-5.4-1.6-7.3,0C84.8,18.3,84.4,18.5,83.9,18.5z"/>
	<g>
		<path class="st0" d="M173,26.4L173,26.4c0-1.6,1.3-2.9,2.9-2.9c1.6,0,2.9,1.3,2.9,2.9v0c0,1.6-1.3,2.9-2.9,2.9
			C174.3,29.2,173,27.9,173,26.4z M178.4,26.4L178.4,26.4c0-1.4-1.1-2.6-2.5-2.6c-1.4,0-2.5,1.2-2.5,2.6v0c0,1.4,1.1,2.5,2.5,2.5
			C177.3,28.9,178.4,27.8,178.4,26.4z M174.8,24.9h1.3c0.6,0,1.1,0.3,1.1,0.9c0,0.5-0.3,0.8-0.7,0.9l0.8,1.1h-0.7l-0.7-1h-0.6v1
			h-0.6V24.9z M176,26.3c0.4,0,0.6-0.2,0.6-0.5c0-0.3-0.2-0.5-0.6-0.5h-0.7v1H176z"/>
	</g>
</g>
</svg>
